<svg xmlns="http://www.w3.org/2000/svg" xmlns:xlink="http://www.w3.org/1999/xlink" width="500" zoomAndPan="magnify" viewBox="0 0 375 374.999991" height="500" preserveAspectRatio="xMidYMid meet" version="1.0"><defs><clipPath id="a5575297e4"><path d="M 0 15.324219 L 375 15.324219 L 375 295.074219 L 0 295.074219 Z M 0 15.324219 " clip-rule="nonzero"/></clipPath></defs><rect x="-37.5" width="450" fill="#ffffff" y="-37.499999" height="449.999989" fill-opacity="1"/><rect x="-37.5" width="450" fill="#ffffff" y="-37.499999" height="449.999989" fill-opacity="1"/><g clip-path="url(#a5575297e4)"><path fill="#4f46e5" d="M 298.425781 258.105469 L 298.425781 120.835938 L 294.078125 119.359375 L 294.078125 257.039062 C 291.125 256.300781 288.167969 255.644531 285.132812 254.988281 L 285.132812 116.242188 L 280.785156 114.765625 L 280.785156 254.082031 C 277.832031 253.425781 274.878906 252.851562 271.84375 252.277344 L 271.84375 111.648438 L 267.492188 110.171875 L 267.492188 251.539062 C 263.71875 250.882812 259.945312 250.226562 256.171875 249.652344 L 256.171875 79.730469 L 224.007812 102.457031 L 224.007812 245.960938 C 219.414062 245.632812 214.734375 245.304688 210.058594 245.058594 L 210.058594 65.042969 L 205.710938 63.566406 L 205.710938 244.894531 C 202.757812 244.8125 199.804688 244.730469 196.769531 244.648438 L 196.769531 60.53125 L 192.417969 59.054688 L 192.417969 244.648438 C 190.695312 244.648438 188.972656 244.648438 187.25 244.648438 C 179.867188 244.648438 172.5625 244.8125 165.261719 245.140625 L 165.261719 15.324219 L 126.125 45.023438 L 126.125 117.882812 L 142.863281 125.269531 L 142.042969 246.699219 C 139.496094 246.945312 136.871094 247.191406 134.328125 247.519531 L 134.328125 151.277344 L 129.980469 149.554688 L 129.980469 248.011719 C 127.027344 248.421875 123.992188 248.75 121.035156 249.242188 L 121.035156 146.027344 L 116.6875 144.304688 L 116.6875 249.898438 C 113.734375 250.390625 110.699219 250.882812 107.746094 251.375 L 107.746094 140.691406 L 103.398438 138.96875 L 103.398438 252.113281 C 99.949219 252.769531 96.503906 253.425781 93.140625 254.164062 L 93.140625 106.480469 L 59.171875 130.4375 L 59.171875 262.78125 C 31.769531 271.066406 5.757812 281.980469 -17.625 295.109375 C 42.84375 275.335938 112.832031 264.011719 187.496094 264.011719 C 262.160156 264.011719 332.148438 275.335938 392.617188 295.109375 C 364.554688 279.355469 332.804688 266.71875 298.425781 258.105469 Z M 298.425781 258.105469 " fill-opacity="1" fill-rule="nonzero"/></g><path fill="#4f46e5" d="M 183.722656 55.9375 L 179.457031 54.460938 L 179.457031 244.566406 L 183.722656 244.566406 Z M 183.722656 55.9375 " fill-opacity="1" fill-rule="nonzero"/></svg>